HIERARCHY
ROOT Hips
{
 OFFSET 0.000000 0.000000 0.000000
 CHANNELS 6 Xposition Yposition Zposition Yrotation Xrotation Zrotation
 JOINT Chest
 {
  OFFSET 0.000000 9.585900 0.002600
  CHANNELS 3 Yrotation Xrotation Zrotation
  JOINT Chest2
  {
   OFFSET 0.000000 9.601200 -0.005300
   CHANNELS 3 Yrotation Xrotation Zrotation
   JOINT Chest3
   {
    OFFSET 0.000000 9.561800 0.000000
    CHANNELS 3 Yrotation Xrotation Zrotation
    JOINT Chest4
    {
     OFFSET 0.000000 9.552100 0.000000
     CHANNELS 3 Yrotation Xrotation Zrotation
     JOINT Neck
     {
      OFFSET 0.000000 14.453000 0.000000
      CHANNELS 3 Yrotation Xrotation Zrotation
      JOINT Head
      {
       OFFSET 0.000000 8.936500 -0.011300
       CHANNELS 3 Yrotation Xrotation Zrotation
       End Site
       {
        OFFSET 0.000000 17.073600 -0.006000
       }
      }
     }
     JOINT RightCollar
     {
      OFFSET -2.921100 9.558500 0.000000
      CHANNELS 3 Yrotation Xrotation Zrotation
      JOINT RightShoulder
      {
       OFFSET -13.519700 0.000000 0.000000
       CHANNELS 3 Yrotation Xrotation Zrotation
       JOINT RightElbow
       {
        OFFSET 0.000000 -29.696600 0.000000
        CHANNELS 3 Yrotation Xrotation Zrotation
        JOINT RightWrist
        {
         OFFSET 0.000000 -24.004700 0.000000
         CHANNELS 3 Yrotation Xrotation Zrotation
         End Site
         {
          OFFSET 0.000000 -17.728500 0.000000
         }
        }
       }
      }
     }
     JOINT LeftCollar
     {
      OFFSET 2.921100 9.558500 0.000000
      CHANNELS 3 Yrotation Xrotation Zrotation
      JOINT LeftShoulder
      {
       OFFSET 13.519700 0.000000 0.000000
       CHANNELS 3 Yrotation Xrotation Zrotation
       JOINT LeftElbow
       {
        OFFSET 0.000000 -29.696600 0.000000
        CHANNELS 3 Yrotation Xrotation Zrotation
        JOINT LeftWrist
        {
         OFFSET 0.000000 -24.004700 0.000000
         CHANNELS 3 Yrotation Xrotation Zrotation
         End Site
         {
          OFFSET 0.000000 -17.728500 0.000000
         }
        }
       }
      }
     }
    }
   }
  }
 }
 JOINT RightHip
 {
  OFFSET -7.771700 -0.012900 -0.001300
  CHANNELS 3 Yrotation Xrotation Zrotation
  JOINT RightKnee
  {
   OFFSET 0.000000 -40.869800 0.001200
   CHANNELS 3 Yrotation Xrotation Zrotation
   JOINT RightAnkle
   {
    OFFSET 0.000000 -39.717900 0.002100
    CHANNELS 3 Yrotation Xrotation Zrotation
    JOINT RightToe
    {
     OFFSET 0.000000 -4.965400 11.033500
     CHANNELS 3 Yrotation Xrotation Zrotation
     End Site
     {
      OFFSET 0.000000 -1.423100 5.872300
     }
    }
   }
  }
 }
 JOINT LeftHip
 {
  OFFSET 7.771700 -0.012900 -0.001300
  CHANNELS 3 Yrotation Xrotation Zrotation
  JOINT LeftKnee
  {
   OFFSET 0.000000 -40.869800 0.001200
   CHANNELS 3 Yrotation Xrotation Zrotation
   JOINT LeftAnkle
   {
    OFFSET 0.000000 -39.717900 0.002100
    CHANNELS 3 Yrotation Xrotation Zrotation
    JOINT LeftToe
    {
     OFFSET 0.000000 -4.965400 11.033500
     CHANNELS 3 Yrotation Xrotation Zrotation
     End Site
     {
      OFFSET 0.000000 -1.423100 5.872300
     }
    }
   }
  }
 }
}
MOTION
Frames: 13
Frame Time: 0.008333
29.632405 49.689140 64.100212 173.565180 -32.998166 -7.251828 5.757514 18.178110 6.409781 0.622842 2.232216 0.569560 1.035145 3.699851 0.955946 4.989923 15.789283 4.674295 -1.410162 16.791212 1.603138 -3.170372 -4.548549 3.447409 0.369605 -4.063889 -4.690106 5.214591 -8.897514 -3.241548 45.651294 -85.048927 -54.168294 4.381575 7.262367 11.278060 -10.458121 -0.351709 -0.867961 7.809068 -8.419546 0.065396 -103.933208 -67.545650 112.899032 1.020875 10.955406 -36.004836 0.340464 -47.808802 8.740902 -114.185263 82.184615 -102.354245 0.991975 -12.804043 -2.841168 -0.179328 0.875014 -0.060219 -10.006278 -51.373096 17.252371 -150.511741 80.073148 -158.171210 2.484964 -17.758668 7.712795 -0.336251 -0.758941 -0.133058
29.637216 49.687018 64.094536 173.557520 -32.953423 -7.234511 5.755392 18.168658 6.397634 0.619948 2.218913 0.565383 1.032771 3.693198 0.951161 4.986624 15.786718 4.659758 -1.397115 16.787791 1.618168 -3.158754 -4.487702 3.480391 0.387080 -4.084190 -4.725513 5.152067 -8.799641 -3.302290 48.992486 -85.086016 -57.464585 4.629386 7.460326 12.175141 -10.446240 -0.356729 -0.838940 8.014253 -8.376650 0.119407 -104.944338 -67.043664 113.729635 0.531081 11.053582 -37.422563 0.362377 -47.878572 8.738693 -114.396867 82.167399 -102.567852 0.969977 -12.812438 -2.842435 -0.160085 0.865839 -0.055440 -9.987387 -51.427265 17.256892 -150.563485 80.061938 -158.233867 2.475225 -17.771162 7.722336 -0.327097 -0.756427 -0.130780
29.641707 49.684448 64.088965 173.529444 -32.910148 -7.208175 5.771159 18.153249 6.386576 0.619533 2.214933 0.562593 1.030691 3.688092 0.946667 4.984599 15.777710 4.650606 -1.393152 16.806036 1.629113 -3.151291 -4.501487 3.485905 0.394950 -4.101714 -4.754756 5.091132 -8.691243 -3.369568 52.808882 -85.128674 -61.248655 4.909195 7.629618 13.206437 -10.436215 -0.359063 -0.812254 8.194005 -8.326967 0.190150 -106.074415 -66.681972 114.652857 0.240188 11.097997 -38.522818 0.382599 -47.948664 8.749153 -114.558758 82.143061 -102.739391 0.953234 -12.813214 -2.848909 -0.144277 0.857774 -0.044077 -9.950737 -51.478561 17.273309 -150.647458 80.050098 -158.340100 2.440572 -17.788393 7.762018 -0.344123 -0.751938 -0.139963
29.644744 49.682570 64.082010 173.526792 -32.872831 -7.190520 5.763573 18.139825 6.369512 0.619687 2.246301 0.564070 1.029631 3.656923 0.940311 4.981103 15.771448 4.639433 -1.390726 16.822361 1.639054 -3.138538 -4.497863 3.506883 0.400851 -4.121385 -4.767618 5.029777 -8.569916 -3.450752 57.239722 -85.167987 -65.653913 5.227685 7.770631 14.358485 -10.420643 -0.364734 -0.785634 8.340377 -8.273919 0.280085 -107.335126 -66.474396 115.673561 0.127002 11.114724 -39.306758 0.389497 -48.000033 8.741435 -114.759200 82.142294 -102.947664 0.941260 -12.837745 -2.847853 -0.142061 0.865880 -0.046902 -9.930625 -51.523408 17.271593 -150.634174 80.035004 -158.340111 2.423344 -17.800272 7.787617 -0.353154 -0.746407 -0.147204
29.646374 49.681015 64.075197 173.516852 -32.834925 -7.165796 5.759834 18.110693 6.346454 0.624142 2.259631 0.564233 1.029424 3.685763 0.940590 4.977318 15.747800 4.628179 -1.390602 16.808824 1.642573 -3.137235 -4.498592 3.523398 0.405975 -4.148443 -4.769555 4.958004 -8.435086 -3.541093 62.344729 -85.194617 -70.725317 5.578989 7.882536 15.605223 -10.406660 -0.377565 -0.763803 8.452895 -8.222150 0.387438 -108.750725 -66.412805 116.809990 0.174479 11.124261 -39.768508 0.403176 -48.051608 8.730178 -114.931634 82.139763 -103.136064 0.941645 -12.860294 -2.837887 -0.150106 0.875327 -0.056770 -9.908179 -51.567090 17.260704 -150.654293 80.024193 -158.376337 2.427065 -17.814128 7.803740 -0.377482 -0.742413 -0.153206
29.648772 49.679896 64.069815 173.503984 -32.790716 -7.150698 5.786427 18.122694 6.350313 0.616606 2.236232 0.561993 1.029246 3.685086 0.940229 4.976756 15.746792 4.626960 -1.400264 16.777399 1.636655 -3.138133 -4.502566 3.525612 0.407685 -4.174704 -4.770599 4.866530 -8.292351 -3.640330 68.071733 -85.197840 -76.398828 5.941574 7.947123 16.932840 -10.400816 -0.392116 -0.754017 8.532864 -8.177270 0.505526 -110.336021 -66.487452 118.081870 0.364109 11.138655 -39.930763 0.382774 -48.113529 8.752475 -115.091094 82.127839 -103.322987 0.943532 -12.858399 -2.838835 -0.157301 0.864120 -0.054209 -9.886487 -51.617563 17.274620 -150.597138 80.005905 -158.326635 2.392493 -17.826457 7.816530 -0.363739 -0.735148 -0.143839
29.650804 49.679630 64.065344 173.512056 -32.741173 -7.151155 5.794250 18.115730 6.360165 0.616997 2.236867 0.562299 1.027445 3.676394 0.938392 4.979598 15.747985 4.628973 -1.416631 16.758595 1.634125 -3.144680 -4.540271 3.522344 0.395508 -4.204186 -4.773372 4.761869 -8.134339 -3.743277 74.323059 -85.175223 -82.569476 6.293646 7.951431 18.318998 -10.405005 -0.402218 -0.748255 8.583989 -8.142949 0.630424 -112.079910 -66.695244 119.493288 0.677401 11.152709 -39.858732 0.342928 -48.173288 8.778586 -115.231462 82.112725 -103.489289 0.955826 -12.866011 -2.857130 -0.170521 0.859537 -0.035670 -9.865613 -51.671514 17.288821 -150.454223 79.986559 -158.178978 2.337909 -17.843439 7.835938 -0.320288 -0.715980 -0.129711
29.651893 49.682454 64.058195 173.500882 -32.716523 -7.139369 5.825703 18.113249 6.368824 0.610007 2.234025 0.561219 1.021102 3.670124 0.936268 4.982340 15.748467 4.630479 -1.420884 16.760329 1.637908 -3.173665 -4.580429 3.525899 0.386664 -4.182067 -4.748452 4.642244 -7.992934 -3.876863 80.939639 -85.131557 -89.072001 6.628429 7.889267 19.705004 -10.411489 -0.404545 -0.745241 8.621921 -8.102288 0.766092 -113.978803 -67.020406 121.045350 1.100463 11.162603 -39.609889 0.330096 -48.204437 8.795634 -115.304578 82.100298 -103.584884 0.965524 -12.874158 -2.862169 -0.178772 0.859177 -0.034231 -9.849975 -51.694915 17.293155 -150.464602 79.980333 -158.206033 2.346833 -17.857030 7.847682 -0.343325 -0.715650 -0.127942
29.650883 49.686517 64.050872 173.513826 -32.694395 -7.133152 5.823187 18.102503 6.361655 0.628964 2.236540 0.564698 1.002531 3.671312 0.935289 4.986396 15.748105 4.632123 -1.422336 16.762864 1.641920 -3.201291 -4.600547 3.531924 0.361606 -4.146174 -4.714928 4.517393 -7.853412 -4.022035 87.731778 -85.061948 -95.707767 6.933358 7.746397 21.015451 -10.424092 -0.402994 -0.740945 8.653321 -8.069772 0.904271 -116.035064 -67.432183 122.734903 1.624865 11.169354 -39.193749 0.298113 -48.224737 8.805998 -115.381367 82.085860 -103.692720 0.980853 -12.896339 -2.855871 -0.190541 0.866181 -0.043066 -9.824522 -51.714339 17.281143 -150.423326 79.975957 -158.172596 2.316507 -17.872796 7.862959 -0.337809 -0.704947 -0.120967
29.650695 49.692255 64.043446 173.519314 -32.682647 -7.132454 5.832408 18.096748 6.364685 0.661134 2.232977 0.569220 0.990839 3.677914 0.936024 5.001400 15.740472 4.638637 -1.449684 16.763251 1.647627 -3.280636 -4.586274 3.561721 0.304708 -4.129485 -4.696062 4.383081 -7.682551 -4.150233 94.533076 -84.949050 -102.313047 7.183432 7.517604 22.189851 -10.459105 -0.379569 -0.729138 8.674413 -8.057373 1.035815 -118.239211 -67.896738 124.553927 2.242366 11.161474 -38.614896 0.279430 -48.230876 8.816702 -115.404344 82.072178 -103.732871 1.000162 -12.921854 -2.852160 -0.207936 0.875907 -0.061676 -9.773305 -51.719588 17.267240 -150.368265 79.974760 -158.113921 2.277163 -17.901639 7.884309 -0.335230 -0.680366 -0.122704
29.647129 49.697642 64.037118 173.534274 -32.666628 -7.121383 5.850783 18.082540 6.361282 0.670136 2.221308 0.567663 1.027345 3.667593 0.941517 4.977253 15.740768 4.647165 -1.481832 16.772868 1.653916 -3.347156 -4.561826 3.583020 0.211763 -4.041642 -4.637111 4.273007 -7.560611 -4.321330 101.143527 -84.778979 -108.699915 7.362719 7.216832 23.184928 -10.509669 -0.336040 -0.713109 8.700879 -8.053550 1.159369 -120.581241 -68.382628 126.498853 2.937493 11.124831 -37.901072 0.282589 -48.243336 8.792018 -115.451276 82.052255 -103.785739 1.015912 -12.948643 -2.853064 -0.209271 0.888235 -0.061346 -9.745887 -51.732339 17.243879 -150.383488 79.978066 -158.146535 2.254025 -17.907653 7.914313 -0.340164 -0.677616 -0.130477
29.645580 49.704243 64.030708 173.577030 -32.660308 -7.140566 5.913800 18.051382 6.393478 0.627563 2.223920 0.565196 1.011418 3.669144 0.943635 5.077611 15.684404 4.661839 -1.535317 16.799769 1.665313 -3.456177 -4.507685 3.628226 0.021095 -3.895644 -4.549445 4.172258 -7.453296 -4.505368 107.292896 -84.548569 -114.599801 7.459372 6.856251 23.967285 -10.638799 -0.257023 -0.694476 8.719790 -8.048889 1.281421 -123.020865 -68.859488 128.539343 3.700463 11.053357 -37.065360 0.244573 -48.235023 8.795068 -115.462851 82.032472 -103.805539 1.032079 -12.985917 -2.849548 -0.211113 0.906989 -0.064839 -9.742851 -51.734599 17.229256 -150.352444 79.977639 -158.113973 2.242827 -17.919383 7.909279 -0.336273 -0.667130 -0.110999
29.645618 49.709856 64.026925 173.589390 -32.650222 -7.156964 5.965507 18.018943 6.420484 0.631071 2.218686 0.565586 1.032875 3.654759 0.944747 5.114186 15.655625 4.673623 -1.595071 16.835791 1.686979 -3.533471 -4.455564 3.672087 -0.147516 -3.757421 -4.456580 4.066699 -7.350289 -4.687837 112.759665 -84.265965 -119.791389 7.461686 6.439422 24.515929 -10.741119 -0.179994 -0.674016 8.726521 -8.060120 1.388963 -125.462009 -69.298839 130.596725 4.526305 10.939738 -36.104570 0.223900 -48.235252 8.812449 -115.421305 82.029597 -103.763245 1.032086 -13.010947 -2.849955 -0.213908 0.924712 -0.070662 -9.740953 -51.738248 17.249067 -150.361219 79.980641 -158.130692 2.216087 -17.934824 7.923862 -0.338620 -0.655077 -0.101034
